<?xml version="1.0" encoding="utf-8"?>
<!-- Generator: Adobe Illustrator 20.1.0, SVG Export Plug-In . SVG Version: 6.00 Build 0)  -->
<svg version="1.1" id="Arrows" xmlns="http://www.w3.org/2000/svg" xmlns:xlink="http://www.w3.org/1999/xlink" x="0px" y="0px"
	 width="44px" height="22px" viewBox="0 0 44 22" enable-background="new 0 0 44 22" xml:space="preserve">
<g id="Right_Arrow_1">
	<g>
		<path fill="#0B80E0" d="M43.7,10.3l-10-10C33.5,0.1,33.3,0,33,0c-0.6,0-1,0.4-1,1c0,0.3,0.1,0.5,0.3,0.7l8.3,8.3H1
			c-0.6,0-1,0.4-1,1c0,0.6,0.4,1,1,1h39.6l-8.3,8.3C32.1,20.5,32,20.7,32,21c0,0.6,0.4,1,1,1c0.3,0,0.5-0.1,0.7-0.3l10-10
			c0.2-0.2,0.3-0.4,0.3-0.7C44,10.7,43.9,10.5,43.7,10.3z"/>
	</g>
</g>
</svg>
