<?xml version="1.0" encoding="utf-8"?>
<!-- Generator: Adobe Illustrator 20.1.0, SVG Export Plug-In . SVG Version: 6.00 Build 0)  -->
<svg version="1.1" id="Arrows" xmlns="http://www.w3.org/2000/svg" xmlns:xlink="http://www.w3.org/1999/xlink" x="0px" y="0px"
	 width="20px" height="40px" viewBox="0 0 20 40" enable-background="new 0 0 20 40" xml:space="preserve">
<g id="Left_Arrow_2">
	<g>
		<path fill="#0B80E0" d="M2.4,20L19.7,1.7C19.9,1.5,20,1.3,20,1c0-0.6-0.4-1-1-1c-0.3,0-0.5,0.1-0.7,0.3l-18,19
			C0.1,19.5,0,19.7,0,20c0,0.3,0.1,0.5,0.3,0.7l18,19c0.2,0.2,0.4,0.3,0.7,0.3c0.6,0,1-0.4,1-1c0-0.3-0.1-0.5-0.3-0.7L2.4,20z"/>
	</g>
</g>
</svg>
