<?xml version="1.0" encoding="utf-8"?>
<!-- Generator: Adobe Illustrator 20.1.0, SVG Export Plug-In . SVG Version: 6.00 Build 0)  -->
<svg version="1.1" id="Web" xmlns="http://www.w3.org/2000/svg" xmlns:xlink="http://www.w3.org/1999/xlink" x="0px" y="0px"
	 width="22px" height="22.9px" viewBox="0 0 22 22.9" enable-background="new 0 0 22 22.9" xml:space="preserve">
<g id="YouTube_Square">
	<polygon fill="#0B80E0" points="6.7,7.7 6.7,4.5 8.4,0 7,0 6,3 5,0 3.5,0 5.3,4.5 5.3,7.7 	"/>
	<path fill="#0B80E0" d="M10.5,7.8c0.9,0,1.7-0.7,1.7-1.6V3.5c0-0.9-0.7-1.6-1.7-1.6h-0.4c-0.9,0-1.7,0.7-1.7,1.6v2.7
		c0,0.9,0.7,1.6,1.7,1.6H10.5z M9.7,6.3V3.4c0-0.3,0.3-0.6,0.6-0.6c0.3,0,0.6,0.3,0.6,0.6v2.9c0,0.3-0.3,0.6-0.6,0.6
		C10,6.9,9.7,6.6,9.7,6.3z"/>
	<path fill="#0B80E0" d="M13.3,1.8V7c0,0,0.1,0.8,0.9,0.8c0.8,0,1.5-0.7,1.5-0.7v0.6H17V1.8h-1.2v4.5c0,0-0.4,0.5-0.8,0.5
		c-0.4,0-0.4-0.3-0.4-0.3V1.8H13.3z"/>
	<path fill="#0B80E0" d="M0.3,12C0.3,12,0,14,0,15.9c0,1.9,0.3,3.8,0.3,3.8c0,1.6,1.4,3,3.1,3c0,0,3.7,0.2,7.6,0.2
		c3.7,0,7.6-0.2,7.6-0.2c1.7,0,3.1-1.3,3.1-3c0,0,0.3-1.9,0.3-3.8c0-1.9-0.3-3.8-0.3-3.8c0-1.6-1.4-3-3.1-3c0,0-3.8-0.2-7.6-0.2
		c-3.8,0-7.6,0.2-7.6,0.2C1.7,9.1,0.3,10.4,0.3,12z M16.3,15.1c0,0,0-1.7,2-1.7s1.9,1.7,1.9,1.7v2h-2.6v1.5c0,0,0,0.7,0.6,0.7
		c0.6,0,0.6-0.7,0.6-0.7v-0.7h1.3v1.1c0,0-0.2,1.4-1.9,1.4c-1.7,0-2-1.4-2-1.4V15.1z M11.5,11.2h1.3v2.9c0.2-0.2,0.7-0.7,1.3-0.7
		c0.8,0,1.1,0.7,1.1,1.6c0,0.9,0,3.7,0,3.7s0,1.6-1.1,1.6c-0.7,0-1.1-0.4-1.3-0.7v0.6h-1.3V11.2z M6.7,13.4H8v5.7c0,0,0,0.3,0.4,0.3
		c0.4,0,0.8-0.5,0.8-0.5v-5.5h1.2v6.8H9.2v-0.6c0,0-0.7,0.7-1.5,0.7c-0.8,0-0.9-0.8-0.9-0.8V13.4z M6.5,12.4H5v7.8H3.5v-7.8H2v-1.3
		h4.5V12.4z"/>
	<path fill="#0B80E0" d="M14,18.5v-3.3c0,0-0.1-0.7-0.6-0.7c-0.3,0-0.5,0.2-0.6,0.3V19c0.1,0.1,0.3,0.3,0.6,0.3
		C14,19.2,14,18.5,14,18.5z"/>
</g>
</svg>
